<?xml version="1.0" encoding="utf-8"?>
<!-- Generator: Adobe Illustrator 24.1.0, SVG Export Plug-In . SVG Version: 6.00 Build 0)  -->
<svg version="1.1" xmlns="http://www.w3.org/2000/svg" xmlns:xlink="http://www.w3.org/1999/xlink" x="0px" y="0px"
	 viewBox="0 0 850.39 850.39" style="enable-background:new 0 0 850.39 850.39;" xml:space="preserve">
<style type="text/css">
	.st0{display:none;}
	.st1{display:inline;fill:url(#SVGID_1_);}
	.st2{fill:none;stroke:url(#SVGID_2_);stroke-width:13.8212;stroke-linecap:round;stroke-miterlimit:10;}
	.st3{fill:none;stroke:url(#SVGID_3_);stroke-width:13.8212;stroke-linecap:round;stroke-miterlimit:10;}
	.st4{fill:none;stroke:url(#SVGID_4_);stroke-width:13.8212;stroke-linecap:round;stroke-miterlimit:10;}
	.st5{fill:none;stroke:url(#SVGID_5_);stroke-width:13.8212;stroke-linecap:round;stroke-miterlimit:10;}
	.st6{fill:none;stroke:url(#SVGID_6_);stroke-width:13.8212;stroke-linecap:round;stroke-miterlimit:10;}
	.st7{fill:none;stroke:url(#SVGID_7_);stroke-width:13.8212;stroke-linecap:round;stroke-miterlimit:10;}
	.st8{fill:none;stroke:url(#SVGID_8_);stroke-width:13.8212;stroke-linecap:round;stroke-miterlimit:10;}
	.st9{fill:none;stroke:url(#SVGID_9_);stroke-width:13.8212;stroke-linecap:round;stroke-miterlimit:10;}
</style>
<g id="Layer_1" class="st0">
	
		<linearGradient id="SVGID_1_" gradientUnits="userSpaceOnUse" x1="215.6446" y1="399.4054" x2="310.8495" y2="399.4054" gradientTransform="matrix(1 0 0 1 -12.2758 12.2758)">
		<stop  offset="0" style="stop-color:#DDE7F5"/>
		<stop  offset="0.5013" style="stop-color:#B0D0EC"/>
		<stop  offset="1" style="stop-color:#1CA8DF"/>
	</linearGradient>
	<path class="st1" d="M296.63,414.86c-1.63-4.65-5.41-10.5-8.46-13.58c-7.12-7.2-15.85-9.01-25.98-9.01h-47.16
		c0.01-0.27,0.02-0.54,0.03-0.81c0.85-12.89,8.48-19.7,10.02-20.88c0.26-0.2,0.52-0.39,0.78-0.57c4.59-3.25,10.14-4.88,15.76-4.88
		h33.15c1.86,0,3.36,1.51,3.36,3.36v19.03c0.52,2.06,2.09,3.64,4.03,4.03c2.55,0.52,4.47-1.25,4.84-1.61
		c1.06-1.03,1.46-2.22,1.61-2.82v-26.09c0-4.2-3.4-7.6-7.6-7.6h-38.36c-8.79,0-17.44,2.61-24.57,7.76
		c-4.07,2.94-7.96,6.91-10.57,12.21c-3.46,7.03-3.87,14.78-4.03,17.95c-0.17,3.25-0.55,10.38,1.82,17.15
		c1.63,4.65,5.41,10.5,8.46,13.58c7.12,7.2,15.85,9.01,25.98,9.01h47.16c-0.01,0.27-0.02,0.54-0.03,0.81
		c-0.85,12.89-8.48,19.7-10.02,20.88c-0.26,0.2-0.52,0.39-0.78,0.57c-4.59,3.25-10.14,4.88-15.76,4.88h-33.15
		c-1.86,0-3.36-1.51-3.36-3.36v-19.03c-0.52-2.06-2.09-3.64-4.03-4.03c-2.55-0.52-4.47,1.25-4.84,1.61
		c-1.06,1.03-1.46,2.22-1.61,2.82v26.09c0,4.2,3.4,7.6,7.6,7.6h38.36c8.79,0,17.44-2.61,24.57-7.76c4.07-2.94,7.96-6.91,10.57-12.21
		c3.46-7.03,3.87-14.78,4.03-17.95C298.61,428.75,298.99,421.63,296.63,414.86z M219.82,412.08c-0.2-0.24-0.39-0.49-0.58-0.75
		c-0.87-1.15-2.31-4.14-3.27-8.35l45.31,0.23c8.02,0,15.82,1.83,20.84,8.08c0.2,0.24,0.39,0.49,0.58,0.75
		c0.87,1.15,2.31,4.14,3.27,8.35l-45.31-0.23C232.64,420.16,224.84,418.33,219.82,412.08z"/>
</g>
<g id="Layer_3">
	<linearGradient id="SVGID_2_" gradientUnits="userSpaceOnUse" x1="299.5071" y1="342.4482" x2="411.872" y2="454.813">
		<stop  offset="0.0373" style="stop-color:#DDE7F5"/>
		<stop  offset="0.1184" style="stop-color:#B8D6EF"/>
		<stop  offset="0.2439" style="stop-color:#7BBDE7"/>
		<stop  offset="0.3373" style="stop-color:#43AEE1"/>
		<stop  offset="0.3873" style="stop-color:#1CA8DF"/>
		<stop  offset="0.453" style="stop-color:#1DA6DC"/>
		<stop  offset="0.5292" style="stop-color:#1EA0D3"/>
		<stop  offset="0.6107" style="stop-color:#1F95C4"/>
		<stop  offset="0.6959" style="stop-color:#1E85AE"/>
		<stop  offset="0.7841" style="stop-color:#1A6F91"/>
		<stop  offset="0.8747" style="stop-color:#11526A"/>
		<stop  offset="0.9656" style="stop-color:#002837"/>
		<stop  offset="1" style="stop-color:#000509"/>
	</linearGradient>
	<path class="st2" d="M330.62,526.29c-27.61-25.48-44.9-61.98-44.9-102.51c0-67.4,47.81-123.64,111.37-136.64"/>
	<linearGradient id="SVGID_3_" gradientUnits="userSpaceOnUse" x1="494.9348" y1="570.1664" x2="494.9348" y2="318.2451">
		<stop  offset="0.0373" style="stop-color:#DDE7F5"/>
		<stop  offset="0.1184" style="stop-color:#B8D6EF"/>
		<stop  offset="0.2439" style="stop-color:#7BBDE7"/>
		<stop  offset="0.3373" style="stop-color:#43AEE1"/>
		<stop  offset="0.3873" style="stop-color:#1CA8DF"/>
		<stop  offset="0.453" style="stop-color:#1DA6DC"/>
		<stop  offset="0.5292" style="stop-color:#1EA0D3"/>
		<stop  offset="0.6107" style="stop-color:#1F95C4"/>
		<stop  offset="0.6959" style="stop-color:#1E85AE"/>
		<stop  offset="0.7841" style="stop-color:#1A6F91"/>
		<stop  offset="0.8747" style="stop-color:#11526A"/>
		<stop  offset="0.9656" style="stop-color:#002837"/>
		<stop  offset="1" style="stop-color:#000509"/>
	</linearGradient>
	<path class="st3" d="M523.82,325.16c25.24,25.24,40.85,60.11,40.85,98.62c0,62.59-41.22,115.55-98,133.21
		c-13.1,4.08-27.03,6.27-41.48,6.27"/>
	<linearGradient id="SVGID_4_" gradientUnits="userSpaceOnUse" x1="496.3593" y1="310.2496" x2="496.3593" y2="543.9846">
		<stop  offset="0.0373" style="stop-color:#DDE7F5"/>
		<stop  offset="0.1184" style="stop-color:#B8D6EF"/>
		<stop  offset="0.2439" style="stop-color:#7BBDE7"/>
		<stop  offset="0.3373" style="stop-color:#43AEE1"/>
		<stop  offset="0.3873" style="stop-color:#1CA8DF"/>
		<stop  offset="0.453" style="stop-color:#1DA6DC"/>
		<stop  offset="0.5292" style="stop-color:#1EA0D3"/>
		<stop  offset="0.6107" style="stop-color:#1F95C4"/>
		<stop  offset="0.6959" style="stop-color:#1E85AE"/>
		<stop  offset="0.7841" style="stop-color:#1A6F91"/>
		<stop  offset="0.8747" style="stop-color:#11526A"/>
		<stop  offset="0.9656" style="stop-color:#002837"/>
		<stop  offset="1" style="stop-color:#000509"/>
	</linearGradient>
	<path class="st4" d="M453.77,317.16c48.98,12.6,85.17,57.06,85.17,109.97c0,52.88-36.16,97.32-85.1,109.95"/>
	<linearGradient id="SVGID_5_" gradientUnits="userSpaceOnUse" x1="320.5071" y1="492.5711" x2="451.3959" y2="361.6823">
		<stop  offset="0.0373" style="stop-color:#DDE7F5"/>
		<stop  offset="0.1184" style="stop-color:#B8D6EF"/>
		<stop  offset="0.2439" style="stop-color:#7BBDE7"/>
		<stop  offset="0.3373" style="stop-color:#43AEE1"/>
		<stop  offset="0.3873" style="stop-color:#1CA8DF"/>
		<stop  offset="0.453" style="stop-color:#1DA6DC"/>
		<stop  offset="0.5292" style="stop-color:#1EA0D3"/>
		<stop  offset="0.6107" style="stop-color:#1F95C4"/>
		<stop  offset="0.6959" style="stop-color:#1E85AE"/>
		<stop  offset="0.7841" style="stop-color:#1A6F91"/>
		<stop  offset="0.8747" style="stop-color:#11526A"/>
		<stop  offset="0.9656" style="stop-color:#002837"/>
		<stop  offset="1" style="stop-color:#000509"/>
	</linearGradient>
	<path class="st5" d="M397.09,537.11c-49-12.58-85.22-57.05-85.22-109.98s36.22-97.4,85.22-109.98"/>
	<linearGradient id="SVGID_6_" gradientUnits="userSpaceOnUse" x1="321.6293" y1="431.51" x2="421.012" y2="530.8927">
		<stop  offset="0.0373" style="stop-color:#DDE7F5"/>
		<stop  offset="0.1184" style="stop-color:#B8D6EF"/>
		<stop  offset="0.2439" style="stop-color:#7BBDE7"/>
		<stop  offset="0.3373" style="stop-color:#43AEE1"/>
		<stop  offset="0.3873" style="stop-color:#1CA8DF"/>
		<stop  offset="0.453" style="stop-color:#1DA6DC"/>
		<stop  offset="0.5292" style="stop-color:#1EA0D3"/>
		<stop  offset="0.6107" style="stop-color:#1F95C4"/>
		<stop  offset="0.6959" style="stop-color:#1E85AE"/>
		<stop  offset="0.7841" style="stop-color:#1A6F91"/>
		<stop  offset="0.8747" style="stop-color:#11526A"/>
		<stop  offset="0.9656" style="stop-color:#002837"/>
		<stop  offset="1" style="stop-color:#000509"/>
	</linearGradient>
	<path class="st6" d="M425.4,516.73c-49.49,0-89.61-40.12-89.61-89.61"/>
	<linearGradient id="SVGID_7_" gradientUnits="userSpaceOnUse" x1="426.8513" y1="433.5522" x2="497.5958" y2="362.8077">
		<stop  offset="0.0373" style="stop-color:#DDE7F5"/>
		<stop  offset="0.1184" style="stop-color:#B8D6EF"/>
		<stop  offset="0.2439" style="stop-color:#7BBDE7"/>
		<stop  offset="0.3373" style="stop-color:#43AEE1"/>
		<stop  offset="0.3873" style="stop-color:#1CA8DF"/>
		<stop  offset="0.453" style="stop-color:#1DA6DC"/>
		<stop  offset="0.5292" style="stop-color:#1EA0D3"/>
		<stop  offset="0.6107" style="stop-color:#1F95C4"/>
		<stop  offset="0.6959" style="stop-color:#1E85AE"/>
		<stop  offset="0.7841" style="stop-color:#1A6F91"/>
		<stop  offset="0.8747" style="stop-color:#11526A"/>
		<stop  offset="0.9656" style="stop-color:#002837"/>
		<stop  offset="1" style="stop-color:#000509"/>
	</linearGradient>
	<path class="st7" d="M400.69,340.96c7.85-2.25,16.14-3.45,24.72-3.45c49.49,0,89.61,40.12,89.61,89.61
		c0,23.53-9.07,44.94-23.9,60.93"/>
	<linearGradient id="SVGID_8_" gradientUnits="userSpaceOnUse" x1="372.5761" y1="388.3078" x2="493.7502" y2="388.3078">
		<stop  offset="0.0373" style="stop-color:#DDE7F5"/>
		<stop  offset="0.1184" style="stop-color:#B8D6EF"/>
		<stop  offset="0.2439" style="stop-color:#7BBDE7"/>
		<stop  offset="0.3373" style="stop-color:#43AEE1"/>
		<stop  offset="0.3873" style="stop-color:#1CA8DF"/>
		<stop  offset="0.453" style="stop-color:#1DA6DC"/>
		<stop  offset="0.5292" style="stop-color:#1EA0D3"/>
		<stop  offset="0.6107" style="stop-color:#1F95C4"/>
		<stop  offset="0.6959" style="stop-color:#1E85AE"/>
		<stop  offset="0.7841" style="stop-color:#1A6F91"/>
		<stop  offset="0.8747" style="stop-color:#11526A"/>
		<stop  offset="0.9656" style="stop-color:#002837"/>
		<stop  offset="1" style="stop-color:#000509"/>
	</linearGradient>
	<path class="st8" d="M379.49,383.36c11.52-12.03,27.74-19.52,45.71-19.52c30.01,0,55.15,20.9,61.64,48.93"/>
	<linearGradient id="SVGID_9_" gradientUnits="userSpaceOnUse" x1="439.9829" y1="499.6363" x2="392.1927" y2="416.8612">
		<stop  offset="0.0373" style="stop-color:#DDE7F5"/>
		<stop  offset="0.1184" style="stop-color:#B8D6EF"/>
		<stop  offset="0.2439" style="stop-color:#7BBDE7"/>
		<stop  offset="0.3373" style="stop-color:#43AEE1"/>
		<stop  offset="0.3873" style="stop-color:#1CA8DF"/>
		<stop  offset="0.453" style="stop-color:#1DA6DC"/>
		<stop  offset="0.5292" style="stop-color:#1EA0D3"/>
		<stop  offset="0.6107" style="stop-color:#1F95C4"/>
		<stop  offset="0.6959" style="stop-color:#1E85AE"/>
		<stop  offset="0.7841" style="stop-color:#1A6F91"/>
		<stop  offset="0.8747" style="stop-color:#11526A"/>
		<stop  offset="0.9656" style="stop-color:#002837"/>
		<stop  offset="1" style="stop-color:#000509"/>
	</linearGradient>
	<path class="st9" d="M469.94,471.86c-11.45,11.45-27.27,18.53-44.74,18.53c-30.04,0-55.19-20.93-61.66-49.01"/>
</g>
</svg>
